<?xml version="1.0" encoding="utf-8"?>
<!-- Generator: Adobe Illustrator 26.2.1, SVG Export Plug-In . SVG Version: 6.00 Build 0)  -->
<svg version="1.1" id="Layer_1" xmlns="http://www.w3.org/2000/svg" xmlns:xlink="http://www.w3.org/1999/xlink" x="0px" y="0px"
	 viewBox="0 0 566.9 566.9" style="enable-background:new 0 0 566.9 566.9;" xml:space="preserve">
<style type="text/css">
	.st0{fill:#77B82A;}
</style>
<g id="Layer_2_00000027569874139004572990000009964499164449275803_">
</g>
<g id="Layer_3">
	<g>
		<path class="st0" d="M80.7,456.6h207c87.1,0,145.8-61.9,145.8-136.7c0-43.2-24.5-77.7-61.3-98.7c26.4-22.6,43.2-53.2,43.2-87.7
			c0-34.8-12.9-64.8-34.8-87.4l58.7,58.7c21.3,21.3,37.1,51.6,37.1,92.9c0,32.9-13.9,61.9-36.4,84.2l20.6,20.6
			c19.3,19.3,33.9,48.1,33.9,84.8c0,74.8-61.3,133.5-152.2,133.5H144.9L80.7,456.6z M176.8,90.9h90.9c27.7,0,48.4,19.4,48.4,47.7
			v4.5h-84.8v43.2h-54.5V90.9z M176.8,267.6h98.7c34.2,0,57.4,20.6,57.4,51.6v0.6H231.3v51h-54.5V267.6z"/>
	</g>
</g>
</svg>
