<?xml version="1.0" encoding="UTF-8"?>
<svg id="Layer_1" data-name="Layer 1" xmlns="http://www.w3.org/2000/svg" version="1.1" viewBox="0 0 1920 544">
  <defs>
    <style>
      .cls-1 {
        fill: #ac005a;
      }

      .cls-1, .cls-2, .cls-3 {
        stroke-width: 0px;
      }

      .cls-2 {
        fill: #ff0060;
        fill-rule: evenodd;
      }

      .cls-3 {
        fill: #fff;
      }
    </style>
  </defs>
  <g>
    <path class="cls-3" d="M933.6,135.5v51.6h-29.6l-1.5-22.2h-35.4v136.1l20.6,3.9v23.2h-79.9v-23.2l20.6-3.9v-136.1h-35.2l-1.7,21.5h-29.4v-51.6l171.5.7ZM1015.4,330.7c-9.1.4-18.3-1.1-26.8-4.5s-16.2-8.6-22.5-15.2c-12.5-13.7-19.2-31.8-18.5-50.4v-5.4c-.7-19,5.5-37.7,17.5-52.5,5.7-6.8,13-12.2,21.1-15.7,8.1-3.6,17-5.2,25.9-4.8,8.3-.5,16.6.8,24.3,3.8s14.7,7.6,20.5,13.6c11.2,13.1,16.9,30,16,47.2v21.3h-85.3v.9c.4,8.6,3.7,16.8,9.4,23.2,2.9,3.1,6.5,5.5,10.4,7,3.9,1.6,8.2,2.3,12.4,2.1,7.2.2,14.3-.7,21.3-2.6,6.4-2.1,12.6-4.9,18.6-8.1l10.4,23.7c-6.9,5.2-14.7,9.2-22.9,11.9-10.3,3.2-21,4.8-31.8,4.5h0ZM1012.1,212.1c-3.3-.1-6.5.6-9.5,2s-5.5,3.5-7.5,6.2c-4.5,6.5-7.1,14.1-7.6,22.1v.6h48v-3.4c.4-7-1.6-13.9-5.7-19.6-2.1-2.7-4.8-4.8-7.9-6.1-3-1.5-6.4-2.1-9.8-1.8ZM1182.1,328.2c-1-2.5-1.9-4.9-2.7-7.4-.8-2.5-1.4-5-1.8-7.6-4.7,5.4-10.4,9.8-16.7,12.9-7,3.4-14.7,5.1-22.5,4.9-12.2.7-24.1-3.4-33.4-11.4-4.3-4-7.6-8.8-9.9-14.2s-3.3-11.2-3-17c-.2-6.1,1.2-12.2,4-17.7,2.8-5.4,7-10.1,12.1-13.4,14.4-8.2,30.8-12,47.3-11h19.7v-14.3c.2-2.8-.2-5.7-1.1-8.4s-2.4-5.1-4.3-7.3c-4.9-4.1-11.2-6.1-17.5-5.7-4-.1-8,.5-11.8,1.5-2.9.8-5.7,2-8.2,3.6l-2.7,15.6h-29v-32.1c7.5-5,15.7-9.1,24.2-12,9.6-3.3,19.6-5,29.8-4.9,15.4-.7,30.6,3.8,43.2,12.9,5.5,4.4,9.9,10.1,12.8,16.5,2.9,6.5,4.2,13.5,3.8,20.6v65.4c0,1.8,0,3.7,0,5.5l11.7,1.5v23.2l-44,.3ZM1148.8,302.4c5.4,0,10.8-1.4,15.6-3.9,4.4-2.2,8.2-5.5,11.1-9.5v-21.8h-19.5c-6.7-.5-13.3,1.6-18.5,5.8-2,1.7-3.6,3.8-4.7,6.2-1.1,2.4-1.6,5-1.6,7.6,0,2.1.2,4.2,1,6.2s2,3.7,3.6,5.1c3.7,2.9,8.3,4.4,13,4.1v.2ZM1235.3,208.3v-23.5h56.3l1.5,18.7c4.3-6.7,10.3-12.1,17.3-15.9,7.4-4,15.6-5.9,24-5.7,8.2-.2,16.4,1.9,23.4,6.1,6.8,4.4,12,10.9,14.8,18.4,4.1-7.4,10-13.6,17.1-18.1,7.5-4.4,16.1-6.6,24.9-6.4,6.3-.2,12.5,1,18.3,3.6,5.7,2.6,10.8,6.4,14.8,11.3,9.3,12.9,13.9,28.6,12.9,44.5v59.6l18.6,3.9v23.2h-74.1v-23.2l16.6-3.9v-59.7c.8-7.9-1.1-15.8-5.3-22.6-2-2.2-4.4-3.9-7.1-5s-5.7-1.6-8.6-1.3c-4.8-.2-9.6,1-13.8,3.4-4.2,2.4-7.6,6-9.9,10.2v4.4c0,1.2,0,2.4,0,3.6v66.9l15.6,3.9v23.2h-69.6v-23.2l15.6-3.9v-59.7c.7-7.9-1.2-15.7-5.3-22.4-2-2.2-4.5-3.9-7.2-5.1-2.8-1.1-5.8-1.6-8.7-1.4-4.7-.1-9.4.9-13.7,3-3.9,1.9-7.2,4.8-9.7,8.4v77.4l16.6,3.9v23.2h-73.4v-23.2l18.7-3.9v-88.9l-20.6-3.8ZM1567.9,135.6v23.2l-20.6,4v100.5c-.4,5.2.3,10.4,2,15.4,1.8,4.9,4.5,9.4,8.2,13.2,7.8,6.7,17.8,10.1,28.1,9.5,10.3.6,20.4-2.8,28.3-9.4,3.7-3.7,6.5-8.2,8.3-13.2,1.8-4.9,2.5-10.2,2-15.4v-100.7l-20.5-4v-23.2h79.7v23.2l-20.6,4v100.5c.5,9.5-1.2,18.9-5,27.6s-9.6,16.4-16.9,22.4c-16.4,11.4-35.8,17.6-55.8,17.6s-39.4-6.1-55.8-17.6c-7.2-6.1-12.8-13.9-16.5-22.5-3.7-8.7-5.3-18.1-4.8-27.5v-100.5l-20.5-4v-23.2h80.4ZM1692.5,208.2v-23.3h55.9l1.9,16.8c3.9-5.9,9.1-10.8,15.2-14.3,6.3-3.5,13.4-5.2,20.6-5,8.2-.3,16.3,1.5,23.6,5.2,7.3,3.7,13.5,9.3,18,16.1,10.4,16.2,15.5,35.3,14.6,54.6v2.8c1,18.3-4.1,36.5-14.6,51.6-4.7,6.3-11,11.3-18.1,14.7-7.1,3.3-15,4.9-22.9,4.5-6.9.2-13.7-1.2-20-4.1-6-3-11.1-7.4-14.9-12.9v41l18.7,4v23.2h-75.7v-23.2l18.7-4v-143.7l-21-4ZM1803.4,257.6c.4-11.3-1.9-22.5-6.7-32.8-1.8-3.9-4.7-7.3-8.4-9.6-3.7-2.3-7.9-3.5-12.2-3.3-5.2-.1-10.3,1.1-14.9,3.5-4.1,2.4-7.4,6-9.7,10.2v63.1c2.2,4,5.6,7.2,9.7,9.3,4.7,2.3,9.9,3.4,15.2,3.2,4.1.2,8.2-.7,11.8-2.6,3.6-1.9,6.6-4.8,8.7-8.4,4.8-9.2,7.1-19.5,6.6-29.8v-2.8h0Z"/>
    <g>
      <path class="cls-2" d="M538.5,238.2c-44.4.5-86.8,18.5-118,50.1s-48.7,74.3-48.7,118.7c-.1,35.9,11.4,70.9,32.7,99.8-40.8,23.5-87,35.8-134,35.7-71.6,0-140.4-28.5-191-79.2C28.8,412.5.3,343.7.3,272S28.8,131.4,79.5,80.7C130.2,30,198.9,1.5,270.5,1.5s129.3,24,178.7,67.6c49.3,43.6,81.1,103.7,89.3,169.1h0Z"/>
      <path class="cls-1" d="M540.6,542c74.6,0,135.1-60.4,135.1-135s-60.5-135-135.1-135-135.1,60.4-135.1,135,60.5,135,135.1,135Z"/>
    </g>
  </g>
  <g>
    <g id="b">
      <g id="c">
        <g>
          <path class="cls-3" d="M881.5,432.8h26c24.1,0,39.7,12.7,39.7,43.3s-15.7,43.3-39.7,43.3h-26v-86.6ZM907.4,509.1c17.8,0,28.2-8,28.2-33s-10.5-33-28.2-33h-14.4v66h14.4Z"/>
          <path class="cls-3" d="M978,482.8l22.8-.9v-3.4c0-8.9-4.5-14.1-15.6-14.1s-15.5,5.2-15.8,11.7h-11.2c.5-11.9,8.9-21.1,26.9-21.1s26.3,9.2,26.3,24.1v40.4h-10.6v-6.7c0-.4-.3-.8-.7-.8h0c-.5,0-.8,0-1.2.8-4.6,5.9-10.8,8.4-19.3,8.4-15.5,0-24.6-8.1-24.6-20.2,0-10.8,7.4-17.5,23.1-18.2M980.9,511.9c12,0,19.9-6.9,19.9-20.2v-.8l-22.8,1.1c-8.5.3-12,3.6-12,9.1,0,6.6,5.2,10.8,14.9,10.8"/>
          <path class="cls-3" d="M1017.2,456.9h11l18,52.9c.3.8.5.9,1.2.9s.9-.3,1.2-.9l18-52.9h11v2.3l-23.5,67.4c-4.1,11.7-10.2,15.6-23.3,15.6h-11.6v-9.6h19.4c1.2,0,2-.3,2.3-1.2l3.4-9.3c.3-.9.5-1.6.2-2s-.6-.6-1.6-.6h-4.9l-21-60.2.2-2.4h0Z"/>
          <path class="cls-3" d="M1149.6,457.5h-11.7c-.6-11.2-8.6-16.3-20.5-16.3s-19.4,4.9-19.4,14.1,7.7,12.3,16.4,13.9l11,1.9c12.7,2.2,25,8,25,24.4s-13.7,25.6-31.6,25.6-34.3-9.1-34.9-29.9h11.7c.8,14.1,10.5,19.9,23.3,19.9s20.2-5.8,20.2-15.3-8.5-12.7-17.5-14.4l-10.9-1.9c-11.6-2.1-24-7.9-24-24s14.1-24.5,31-24.5c16.8-.1,31.2,8.3,31.9,26.5"/>
          <path class="cls-3" d="M1161.7,456.9h10.7v7c0,.6.3.8.8.8s.8-.3,1.2-1.1c3.4-5.3,9.2-8.6,17.8-8.6s16.3,4.2,19.7,11c.3.6.5.9,1.2.9s.8-.3,1.2-1.2c3.3-6.9,9.7-10.8,20.3-10.8s22.8,9.7,22.8,24.7v39.7h-10.8v-38.3c0-10.8-5.3-16.3-15.6-16.3s-16.3,5.5-16.3,19.2v35.5h-10.8v-38.4c0-10.8-5.3-16.3-15.6-16.3s-16.3,5.5-16.3,19.2v35.5h-10.8v-62.5h.5Z"/>
          <path class="cls-3" d="M1290.6,482.8l22.8-.9v-3.5c0-8.9-4.5-14.1-15.6-14.1s-15.5,5.2-15.8,11.7h-11.2c.5-11.9,8.9-21.1,26.9-21.1s26.3,9.2,26.3,24.1v40.4h-10.6v-6.7c0-.4-.3-.8-.7-.8h0c-.5,0-.8,0-1.2.8-4.6,5.9-10.9,8.4-19.3,8.4-15.5,0-24.6-8.1-24.6-20.2.2-10.7,7.4-17.4,23.1-18.1M1293.6,511.9c12,0,19.9-6.9,19.9-20.2v-.8l-22.8,1.1c-8.4.3-12,3.6-12,9.1,0,6.6,5.2,10.8,14.9,10.8"/>
          <path class="cls-3" d="M1335.2,456.9h10.9v8.4c0,.6.3.8.8.8.8,0,.9-.3,1.2-.9,2.8-6.1,7.1-8.6,15.6-8.6h7.1v10.6h-8.6c-10.5,0-16,4.7-16,16.8v35.5h-10.8v-62.6h-.2Z"/>
          <path class="cls-3" d="M1375.7,456.9h14.4v-16.8h10.8v16.8h17.9v9.7h-18v41.6c0,.6,0,1.1.5,1.2.3.3.8.5,1.2.5h16.3v9.7h-10.6c-12.2,0-18-5.8-18-18v-35.1h-14.3v-9.7h-.2Z"/>
          <polygon class="cls-3" points="1413.6 442.7 1413.6 435.2 1411 435.2 1411 433.9 1417.7 433.9 1417.7 435.2 1415.1 435.2 1415.1 442.7 1413.6 442.7"/>
          <polygon class="cls-3" points="1418.9 442.7 1418.9 433.9 1420.8 433.9 1423.6 439.5 1426.3 433.9 1428.2 433.9 1428.2 442.7 1426.6 442.7 1426.6 436.5 1424.2 441.3 1422.9 441.3 1420.5 436.5 1420.5 442.7 1418.9 442.7"/>
        </g>
      </g>
    </g>
    <g>
      <path class="cls-3" d="M1521.7,520.9c-6.7,0-12.4-1.5-17.3-4.4-4.8-3-8.6-7.1-11.2-12.4-2.7-5.3-4-11.4-4-18.4s1.3-13.1,4-18.4,6.4-9.4,11.2-12.4c4.8-3,10.6-4.5,17.3-4.5s14.1,1.9,19,5.6,8,8.9,9.4,15.6h-9c-1-4.2-3.2-7.6-6.4-10.2-3.2-2.6-7.5-3.8-13-3.8s-9.1,1.1-12.8,3.4c-3.6,2.2-6.4,5.5-8.4,9.6-2,4.2-3,9.2-3,15s1,10.8,3,15,4.8,7.4,8.4,9.6c3.6,2.2,7.9,3.4,12.8,3.4s9.8-1.2,13-3.7,5.3-5.8,6.4-10h9c-1.4,6.6-4.5,11.7-9.4,15.4-4.9,3.8-11.3,5.6-19,5.6Z"/>
      <path class="cls-3" d="M1583.4,520.9c-4.5,0-8.6-1-12.3-3.1-3.6-2.1-6.5-5-8.6-8.8s-3.2-8.3-3.2-13.4,1.1-9.6,3.2-13.4,5-6.7,8.7-8.8c3.7-2.1,7.8-3.1,12.3-3.1s8.6,1,12.3,3.1c3.6,2.1,6.5,5,8.6,8.8s3.2,8.3,3.2,13.4-1.1,9.6-3.2,13.4-5,6.7-8.7,8.8c-3.7,2.1-7.8,3.1-12.3,3.1ZM1583.4,513.9c2.8,0,5.4-.7,7.8-2,2.4-1.4,4.3-3.4,5.8-6.1s2.2-6.1,2.2-10.1-.7-7.4-2.2-10.1-3.4-4.8-5.8-6.1c-2.4-1.4-5-2-7.7-2s-5.4.7-7.8,2c-2.4,1.4-4.3,3.4-5.8,6.1s-2.2,6.1-2.2,10.1.7,7.4,2.2,10.1,3.4,4.8,5.8,6.1c2.4,1.3,4.9,2,7.7,2Z"/>
      <path class="cls-3" d="M1619,519.8v-48.3h7.4l.6,7c1.6-2.6,3.6-4.6,6.2-6s5.5-2.1,8.8-2.1,7.1.8,9.9,2.3,4.9,3.9,6.4,7.1c1.7-2.9,4-5.2,7-6.9,3-1.7,6.1-2.5,9.6-2.5,5.8,0,10.4,1.7,13.8,5.2s5.2,8.8,5.2,16v28.2h-8.1v-27.4c0-5-1-8.8-3-11.3s-4.9-3.8-8.7-3.8-7.1,1.5-9.7,4.5-3.8,7.3-3.8,12.9v25h-8.2v-27.4c0-5-1-8.8-3-11.3s-4.9-3.8-8.7-3.8-7,1.5-9.6,4.5-3.8,7.3-3.8,12.9v25h-8.3v.2h0Z"/>
      <path class="cls-3" d="M1706.1,541.2v-69.7h7.4l.8,8c1.6-2.3,3.8-4.4,6.7-6.3,2.9-1.9,6.6-2.8,11.1-2.8s9,1.1,12.6,3.3,6.3,5.2,8.3,9.1c2,3.8,3,8.2,3,13s-1,9.2-3,13c-2,3.8-4.8,6.8-8.4,9s-7.8,3.3-12.6,3.3-7.5-.8-10.6-2.4c-3.1-1.6-5.4-3.9-7.1-6.8v29.5h-8.2v-.2h0ZM1731,513.8c3.2,0,6.1-.8,8.6-2.3s4.4-3.7,5.8-6.4c1.4-2.7,2.1-5.9,2.1-9.5s-.7-6.8-2.1-9.5-3.4-4.8-5.8-6.4c-2.5-1.5-5.3-2.3-8.6-2.3s-6.1.8-8.6,2.3-4.4,3.6-5.8,6.4c-1.4,2.7-2.1,5.9-2.1,9.5s.7,6.8,2.1,9.5,3.4,4.9,5.8,6.4c2.5,1.6,5.4,2.3,8.6,2.3Z"/>
      <path class="cls-3" d="M1783.3,520.9c-4,0-7.4-.7-10-2-2.7-1.4-4.6-3.2-5.9-5.5s-1.9-4.7-1.9-7.4c0-4.9,1.9-8.7,5.6-11.4,3.8-2.7,8.9-4,15.4-4h13v-.6c0-4.2-1.1-7.4-3.3-9.6-2.2-2.2-5.2-3.3-8.9-3.3s-5.9.8-8.2,2.4c-2.3,1.6-3.7,3.9-4.3,7h-8.4c.3-3.5,1.5-6.5,3.6-8.9,2-2.4,4.6-4.2,7.6-5.5s6.3-1.9,9.7-1.9c6.7,0,11.8,1.8,15.2,5.4,3.4,3.6,5.1,8.4,5.1,14.4v29.7h-7.3l-.5-8.7c-1.4,2.7-3.4,5-6,7-2.6,2-6.1,2.9-10.5,2.9ZM1784.6,514c3.1,0,5.8-.8,8-2.4s3.9-3.7,5.1-6.3c1.2-2.6,1.8-5.3,1.8-8.2h0c0-.1-12.4-.1-12.4-.1-4.8,0-8.2.8-10.2,2.5s-3,3.7-3,6.2.9,4.6,2.8,6.1c1.9,1.5,4.5,2.2,7.9,2.2Z"/>
      <path class="cls-3" d="M1819.9,519.8v-48.3h7.4l.5,8.7c1.6-3.1,3.8-5.5,6.7-7.2,2.9-1.8,6.2-2.6,9.9-2.6,5.7,0,10.3,1.7,13.7,5.2,3.4,3.5,5.1,8.8,5.1,16v28.2h-8.2v-27.4c0-10.1-4.2-15.1-12.5-15.1s-7.6,1.5-10.4,4.5-4.1,7.3-4.1,12.9v25h-8.1Z"/>
      <path class="cls-3" d="M1879.4,541.2l12-26.1h-2.8l-19.2-43.6h8.9l16,37.6,16.9-37.6h8.5l-31.6,69.7h-8.7Z"/>
    </g>
    <path class="cls-3" d="M761.7,520.5l25.1-68.1h8.7l25,68.1h-8.7l-6.2-17.5h-29l-6.3,17.5h-8.6ZM779,496.4h24.1l-12.1-33.7-12,33.7Z"/>
  </g>
</svg>